# xmcd
#
# Track frame offsets:
#	150
#	17310
#	29511
#	41031
#	60549
#	75428
#	87658
#	102897
#	116128
#	131866
#	152072
#	168038
#
# Disc length: 2400 seconds
#
# Revision: 1
# Processed by: cddbd v1.5.2PL0 Copyright (c) Steve Scherf et al.
# Submitted via: EZCDAudioConverter 7.0.8.1
#
DISCID=91095e0c
DTITLE=Willie Nelson - Willie and The Boys Willie's Stash Vol. 2
DYEAR=2017
DGENRE=Country
TTITLE0=Move It On Over
TTITLE1=Mind Your Own Buisness
TTITLE2=Healing Hands Of Time
TTITLE3=Can I Sleep In Your Arms
TTITLE4=Send Me The Pillow You Dream On
TTITLE5=I'm So Lonesome I Could Cry
TTITLE6=I'm Movin' On
TTITLE7=Your Cheatin' Heart
TTITLE8=My Tears Fall
TTITLE9=Cold, Cold Heart
TTITLE10=Mansion On The Hill
TTITLE11=Why Don't You Love Me
EXTD=
EXTT0=
EXTT1=
EXTT2=
EXTT3=
EXTT4=
EXTT5=
EXTT6=
EXTT7=
EXTT8=
EXTT9=
EXTT10=
EXTT11=
PLAYORDER=
